# xmcd
#
# Track frame offsets:
#	150
#	12582
#	27918
#	40402
#	52501
#	67837
#	82719
#	93930
#	109346
#	121637
#	134971
#	146627
#	166408
#	176961
#	188314
#	204593
#	219255
#	232459
#	253255
#	272880
#	285907
#
# Disc length: 4000 seconds
#
# Revision: 1
# Processed by: cddbd v1.5.2PL0 Copyright (c) Steve Scherf et al.
# Submitted via: audiograbber 1.83.01
#
DISCID=2c0f9e15
DTITLE=Various Artist - Western Radio
DYEAR=2006
DGENRE=Country
TTITLE0=The boss hoss - Yee haw!
TTITLE1=Johnny Cash - Ring of fire
TTITLE2=Lee Majors - Unknown Stuntman
TTITLE3=Texas Lightning - Like a virgin
TTITLE4=Glen Campbell - Rhinestone Cowboy
TTITLE5=Roger Miller - King of the road
TTITLE6=Billy Ray Cyrus - Achy breaky heart
TTITLE7=Dolly Parton - 9 to 5
TTITLE8=Lynn Anderson - Rose garden
TTITLE9=Willie Nelson - On the road again
TTITLE10=The Mavericks - Dance the night away
TTITLE11=Statler Brothers - Flowers on the wall
TTITLE12=Leroy Pullins - I'm a nut
TTITLE13=The Charlie Daniels Band - The devil went down to Georgia
TTITLE14=Lee Hazlewood - These boots are made for walking
TTITLE15=The Shadows - Apache
TTITLE16=Pussycat - Mississippi
TTITLE17=Kris Kristofferson - Me and Bobby Mc Gee
TTITLE18=Heike Makatsch - Stand by your man
TTITLE19=The Soggy Bottom Boys feat. Dan Tyminski - I am a man of constant sorr
TTITLE19=ow
TTITLE20=Hugo Montenegro and His Orchestra - The good, the bad and the ugly
EXTD=
EXTT0=
EXTT1=
EXTT2=
EXTT3=
EXTT4=
EXTT5=
EXTT6=
EXTT7=
EXTT8=
EXTT9=
EXTT10=
EXTT11=
EXTT12=
EXTT13=
EXTT14=
EXTT15=
EXTT16=
EXTT17=
EXTT18=
EXTT19=
EXTT20=
PLAYORDER=
